<svg width="644" height="350" viewBox="0 0 644 350" fill="none" xmlns="http://www.w3.org/2000/svg">
<rect width="644" height="350" fill="#CDCDCD"/>
<path d="M610.274 297.704L590.392 282.321V246.343C590.392 245.069 589.067 244.037 587.434 244.037H570.161C569.229 244.037 568.344 244.375 567.776 244.949L548.581 264.291H537.379L562.114 239.092C563.245 237.94 565.012 237.26 566.87 237.26H587.433C589.066 237.26 590.391 236.228 590.391 234.955V205.388C590.391 203.434 590.175 201.518 589.777 199.649L607.521 187.124C608.916 186.141 609.715 184.735 609.715 183.271V159.877C609.715 158.406 608.942 156.992 607.583 155.972L577.681 133.552C576.08 132.353 573.416 133.237 573.416 134.966V170.215H501.299V134.967C501.299 133.237 498.635 132.353 497.034 133.553L467.13 155.972C465.773 156.991 465 158.406 465 159.875V183.272C465 184.736 465.799 186.142 467.191 187.126L487.634 201.732C487.634 206.86 487.634 236.933 487.634 236.933C487.634 238.409 488.376 239.835 489.695 240.893L520.386 265.537L515.624 270.388C514.152 271.886 515.524 274.05 517.946 274.05H530.587L553.443 291.194H533.559L494.439 260.071C493.681 259.47 492.368 259.888 492.368 260.729V270.066C492.368 271.54 493.114 272.965 494.439 274.018L528.295 300.953H566.455H584.128H608.554C610.733 300.953 611.82 298.899 610.274 297.704ZM573.986 253.797H577.868V272.632L565.365 262.959L573.986 253.797ZM560.682 227.501C558.823 227.501 557.058 228.181 555.927 229.332L542.017 243.501L525.188 230.471V219.639H577.867V227.501H560.682ZM500.161 205.388C500.161 205.102 500.182 204.819 500.193 204.535H531.502C533.137 204.535 534.462 203.502 534.462 202.23V195.185H539.616C539.695 195.174 547.358 194.702 552.415 198.549C555.624 200.989 557.333 204.793 557.526 209.878H500.161V205.388ZM577.867 205.388V209.879H570.047C569.811 201.97 566.784 195.787 561.021 191.455C552.23 184.85 538.908 185.474 538.368 185.474C537.141 185.474 535.701 185.474 534.462 185.474V180.136H545.461C563.331 180.136 577.867 191.464 577.867 205.388ZM582.984 179.975C584.618 179.975 585.943 178.943 585.943 177.669V153.289L597.192 161.723V181.248L585.486 189.51C583.14 185.933 580.029 182.711 576.319 179.975H582.984ZM477.527 161.724L488.776 153.289V177.669C488.776 178.943 490.101 179.975 491.734 179.975H521.937V194.775H496.692L477.527 181.249V161.724ZM500.161 235.282V219.639H512.664V232.227C512.664 233.699 513.422 235.119 514.762 236.156L534.344 251.319L528.081 257.7L500.161 235.282ZM571.507 291.194L548.648 274.051H551.972C553.827 274.051 555.582 273.357 556.679 272.192L557.878 270.918L577.868 286.385V286.586H578.127L584.084 291.195H571.507V291.194Z" fill="#D6AC1A"/>
<path d="M45.7256 186.704L65.6081 171.321V135.343C65.6081 134.069 66.933 133.037 68.5659 133.037H85.8391C86.7713 133.037 87.6555 133.375 88.2244 133.949L107.419 153.291H118.621L93.8858 128.092C92.7547 126.94 90.9884 126.26 89.13 126.26H68.5666C66.9337 126.26 65.6088 125.228 65.6088 123.955V94.3885C65.6088 92.434 65.8247 90.518 66.2226 88.649L48.4786 76.1239C47.0836 75.1409 46.2849 73.7353 46.2849 72.2712V48.8774C46.2849 47.4064 47.0579 45.9922 48.4174 44.9719L78.3192 22.552C79.9197 21.3525 82.5836 22.2368 82.5836 23.9662V59.2149H154.701V23.9667C154.701 22.2368 157.365 21.3531 158.966 22.5526L188.87 44.9725C190.227 45.9911 191 47.4058 191 48.8752V72.2717C191 73.7365 190.201 75.1421 188.809 76.1256L168.366 90.7321C168.366 95.8595 168.366 125.933 168.366 125.933C168.366 127.409 167.624 128.835 166.305 129.893L135.614 154.537L140.376 159.388C141.848 160.886 140.476 163.05 138.054 163.05H125.413L102.557 180.194H122.441L161.561 149.071C162.319 148.47 163.632 148.888 163.632 149.729V159.066C163.632 160.54 162.886 161.965 161.561 163.018L127.705 189.953H89.5449H71.8723H47.4462C45.2665 189.953 44.1803 187.899 45.7256 186.704ZM82.014 142.797H78.1321V161.632L90.6347 151.959L82.014 142.797ZM95.3176 116.501C97.1768 116.501 98.9423 117.181 100.073 118.332L113.983 132.501L130.812 119.471V108.639H78.1328V116.501H95.3176ZM155.839 94.3885C155.839 94.102 155.818 93.8189 155.807 93.5347H124.498C122.863 93.5347 121.538 92.5023 121.538 91.2299V84.1848H116.384C116.305 84.1745 108.642 83.7025 103.585 87.5489C100.376 89.9886 98.6675 93.7931 98.4737 98.878H155.839V94.3885ZM78.1328 94.3885V98.8786H85.9526C86.1891 90.9698 89.2162 84.7865 94.9794 80.4555C103.77 73.8502 117.092 74.4737 117.632 74.4737C118.859 74.4737 120.299 74.4737 121.538 74.4737V69.1356H110.539C92.6693 69.1362 78.1328 80.4641 78.1328 94.3885ZM73.0159 68.9748C71.3823 68.9748 70.0574 67.943 70.0574 66.6689V42.2893L58.8081 50.7229V70.2483L70.5142 78.5102C72.8605 74.9331 75.9708 71.7113 79.681 68.9748H73.0159ZM178.473 50.724L167.224 42.2893V66.6689C167.224 67.943 165.899 68.9748 164.266 68.9748H134.063V83.7754H159.308L178.473 70.2489V50.724ZM155.839 124.282V108.639H143.336V121.227C143.336 122.699 142.578 124.119 141.238 125.156L121.656 140.319L127.919 146.7L155.839 124.282ZM84.4928 180.194L107.352 163.051H104.028C102.173 163.051 100.418 162.357 99.3211 161.192L98.1222 159.918L78.1321 175.385V175.586H77.8727L71.9165 180.195H84.4928V180.194Z" fill="#D6AC1A"/>
<path d="M171.88 191.56C163.64 191.56 157.4 189.16 153.16 184.36C148.92 179.48 146.8 172.52 146.8 163.48C146.8 157.88 147.64 152.48 149.32 147.28C151 142.08 153.44 137.4 156.64 133.24C159.84 129.08 163.72 125.8 168.28 123.4C172.92 120.92 178.2 119.68 184.12 119.68C192.44 119.68 198.68 122.12 202.84 127C207.08 131.8 209.2 138.72 209.2 147.76C209.2 153.36 208.36 158.76 206.68 163.96C205 169.16 202.56 173.84 199.36 178C196.16 182.16 192.24 185.48 187.6 187.96C183.04 190.36 177.8 191.56 171.88 191.56ZM174.52 184.24C177.32 184.24 179.76 183.16 181.84 181C184 178.76 185.76 175.84 187.12 172.24C188.56 168.64 189.64 164.68 190.36 160.36C191.08 156.04 191.44 151.8 191.44 147.64C191.44 141.16 190.6 136.12 188.92 132.52C187.32 128.84 184.84 127 181.48 127C178.68 127 176.2 128.12 174.04 130.36C171.96 132.52 170.2 135.4 168.76 139C167.4 142.6 166.36 146.56 165.64 150.88C164.92 155.12 164.56 159.36 164.56 163.6C164.56 170.16 165.36 175.24 166.96 178.84C168.64 182.44 171.16 184.24 174.52 184.24ZM235.727 190.48C233.999 190.48 232.047 190.384 229.871 190.192C227.695 190.064 225.647 190 223.727 190H213.071L213.647 185.008L218.159 184.144C218.863 184.016 219.407 183.792 219.791 183.472C220.175 183.152 220.399 182.608 220.463 181.84L225.263 143.152C225.391 142.32 225.263 141.776 224.879 141.52C224.559 141.2 224.015 140.976 223.247 140.848L219.023 139.984L219.599 134.992H230.159C231.375 134.992 232.815 134.992 234.479 134.992C236.143 134.928 237.775 134.864 239.375 134.8C241.039 134.736 242.351 134.704 243.311 134.704C250.799 134.704 256.495 136.432 260.399 139.888C264.367 143.28 266.351 148.72 266.351 156.208C266.351 159.024 266.031 162 265.391 165.136C264.751 168.272 263.695 171.344 262.223 174.352C260.815 177.36 258.927 180.08 256.559 182.512C254.191 184.944 251.279 186.896 247.823 188.368C244.431 189.776 240.399 190.48 235.727 190.48ZM237.839 185.008C240.527 185.008 242.767 184.08 244.559 182.224C246.415 180.304 247.887 177.872 248.975 174.928C250.127 171.984 250.927 168.848 251.375 165.52C251.887 162.192 252.143 159.088 252.143 156.208C252.143 150.768 251.343 146.704 249.743 144.016C248.143 141.264 245.551 139.888 241.967 139.888C241.519 139.888 240.975 139.92 240.335 139.984C239.695 139.984 239.151 140.048 238.703 140.176L233.135 184.336C233.839 184.592 234.575 184.784 235.343 184.912C236.175 184.976 237.007 185.008 237.839 185.008ZM268.577 190L269.153 185.008L273.665 184.144C274.369 184.016 274.913 183.792 275.297 183.472C275.681 183.152 275.905 182.608 275.969 181.84L280.769 143.152C280.897 142.32 280.769 141.776 280.385 141.52C280.065 141.2 279.521 140.976 278.753 140.848L274.529 139.984L275.105 134.992H301.217L300.641 139.984L296.129 140.848C295.489 140.976 294.977 141.2 294.593 141.52C294.209 141.84 293.953 142.384 293.825 143.152L289.025 181.84C288.961 182.672 289.089 183.248 289.409 183.568C289.729 183.824 290.273 184.016 291.041 184.144L295.265 185.008L294.689 190H268.577ZM302.414 190L302.99 185.008L307.502 184.144C308.206 184.016 308.75 183.792 309.134 183.472C309.518 183.152 309.742 182.608 309.806 181.84L314.606 143.152C314.734 142.32 314.606 141.776 314.222 141.52C313.902 141.2 313.358 140.976 312.59 140.848L308.366 139.984L308.942 134.992H328.718L346.382 177.04L344.462 177.232L348.686 143.152C348.814 142.32 348.686 141.776 348.302 141.52C347.982 141.2 347.438 140.976 346.67 140.848L342.446 139.984L343.022 134.992H363.278L362.702 139.984L358.19 140.848C357.55 140.976 357.038 141.2 356.654 141.52C356.27 141.84 356.014 142.384 355.886 143.152L350.03 190H338.414L319.502 144.88L321.614 144.688L317.006 181.84C316.942 182.672 317.07 183.248 317.39 183.568C317.71 183.824 318.254 184.016 319.022 184.144L323.246 185.008L322.67 190H302.414ZM389.964 142.096L386.316 145.552C384.268 144.144 382.252 142.672 380.268 141.136C378.348 139.536 376.556 137.936 374.892 136.336C373.292 134.672 371.948 133.072 370.86 131.536L378.252 125.872L389.964 142.096ZM415.045 191.248C411.909 191.248 408.837 190.928 405.829 190.288C402.821 189.648 400.165 188.72 397.861 187.504C397.989 184.432 398.309 181.456 398.821 178.576C399.397 175.632 400.005 173.104 400.645 170.992H407.941L408.325 178.576C408.389 179.792 408.485 180.784 408.613 181.552C408.805 182.32 409.317 183.056 410.149 183.76C410.981 184.464 411.973 185.008 413.125 185.392C414.277 185.712 415.365 185.872 416.389 185.872C418.821 185.872 420.837 185.136 422.437 183.664C424.101 182.192 424.933 180.208 424.933 177.712C424.933 175.664 424.389 173.968 423.301 172.624C422.277 171.216 420.933 170 419.269 168.976C417.669 167.888 415.941 166.832 414.085 165.808C412.293 164.72 410.565 163.568 408.901 162.352C407.237 161.072 405.893 159.536 404.869 157.744C403.845 155.888 403.333 153.616 403.333 150.928C403.333 147.6 404.165 144.656 405.829 142.096C407.557 139.536 410.021 137.52 413.221 136.048C416.485 134.512 420.357 133.744 424.837 133.744C427.397 133.744 430.021 134 432.709 134.512C435.397 134.96 437.829 135.632 440.005 136.528C439.941 138.64 439.685 141.072 439.237 143.824C438.853 146.512 438.341 148.976 437.701 151.216H430.693L430.117 145.072C429.989 143.728 429.829 142.704 429.637 142C429.509 141.232 429.093 140.624 428.389 140.176C427.877 139.792 427.173 139.504 426.277 139.312C425.381 139.056 424.453 138.928 423.493 138.928C421.253 138.928 419.365 139.632 417.829 141.04C416.357 142.384 415.621 144.08 415.621 146.128C415.621 147.92 416.133 149.456 417.157 150.736C418.245 152.016 419.589 153.168 421.189 154.192C422.853 155.152 424.613 156.176 426.469 157.264C428.389 158.288 430.149 159.472 431.749 160.816C433.413 162.16 434.757 163.824 435.781 165.808C436.869 167.728 437.413 170.096 437.413 172.912C437.413 176.688 436.453 179.952 434.533 182.704C432.613 185.456 429.957 187.568 426.565 189.04C423.237 190.512 419.397 191.248 415.045 191.248ZM143.344 250L143.92 245.008L148.432 244.144C149.136 244.016 149.68 243.792 150.064 243.472C150.448 243.152 150.672 242.608 150.736 241.84L155.44 203.728C155.568 202.64 155.472 201.936 155.152 201.616C154.832 201.232 154.288 200.976 153.52 200.848L149.296 199.984L149.872 194.992H162.832C164.496 194.992 166.288 194.928 168.208 194.8C170.128 194.672 172.016 194.608 173.872 194.608C177.968 194.608 181.488 195.088 184.432 196.048C187.376 197.008 189.648 198.512 191.248 200.56C192.848 202.608 193.648 205.328 193.648 208.72C193.648 211.92 192.944 214.672 191.536 216.976C190.128 219.28 188.304 221.136 186.064 222.544C183.888 223.888 181.52 224.848 178.96 225.424L175.12 226.864H164.56L165.232 221.392C165.744 221.648 166.352 221.84 167.056 221.968C167.76 222.032 168.336 222.064 168.784 222.064C172.368 222.064 175.184 220.848 177.232 218.416C179.28 215.984 180.304 212.88 180.304 209.104C180.304 207.056 179.984 205.36 179.344 204.016C178.768 202.608 177.872 201.552 176.656 200.848C175.44 200.144 173.936 199.792 172.144 199.792C171.696 199.792 171.184 199.824 170.608 199.888C170.096 199.888 169.584 199.92 169.072 199.984L163.792 242.224C163.728 242.864 163.792 243.312 163.984 243.568C164.24 243.76 164.688 243.92 165.328 244.048L169.744 245.008L169.168 250H143.344ZM183.952 250.672C181.84 250.672 180.24 250.192 179.152 249.232C178.128 248.272 177.264 246.96 176.56 245.296C175.92 243.824 175.28 242 174.64 239.824C174.064 237.584 173.488 235.216 172.912 232.72C172.336 230.224 171.824 227.824 171.376 225.52L183.376 223.216C184.08 226.544 184.912 229.808 185.872 233.008C186.832 236.208 187.728 238.544 188.56 240.016C189.136 241.04 189.648 241.776 190.096 242.224C190.608 242.672 191.28 242.896 192.112 242.896C193.008 242.896 194.16 242.736 195.568 242.416L196.432 247.696C194.64 248.464 192.56 249.168 190.192 249.808C187.888 250.384 185.808 250.672 183.952 250.672ZM238.378 209.872L237.706 203.824C237.642 202.992 237.482 202.384 237.226 202C237.034 201.552 236.554 201.2 235.786 200.944C235.018 200.624 234.122 200.464 233.098 200.464C232.138 200.4 231.21 200.368 230.314 200.368H225.226L222.826 218.992L236.554 218.32C236.682 219.536 236.65 220.816 236.458 222.16C236.33 223.44 236.042 224.624 235.594 225.712L222.058 225.232L219.658 244.336H224.938C226.346 244.336 227.658 244.272 228.874 244.144C230.09 244.016 231.114 243.824 231.946 243.568C232.65 243.312 233.194 242.96 233.578 242.512C233.962 242 234.314 241.328 234.634 240.496L237.898 232.912L244.042 233.488C243.85 236.112 243.53 238.832 243.082 241.648C242.634 244.4 242.026 247.184 241.258 250H199.594L200.17 245.008L204.682 244.144C205.386 244.016 205.93 243.792 206.314 243.472C206.698 243.152 206.922 242.608 206.986 241.84L211.786 203.152C211.914 202.32 211.786 201.776 211.402 201.52C211.082 201.2 210.538 200.976 209.77 200.848L205.546 199.984L206.122 194.992H246.634C246.506 197.296 246.25 199.728 245.866 202.288C245.546 204.784 245.098 207.312 244.522 209.872H238.378ZM273.864 251.248C268.36 251.248 263.944 250.288 260.616 248.368C257.352 246.384 255.016 243.696 253.608 240.304C252.2 236.912 251.496 233.008 251.496 228.592C251.496 224.048 252.136 219.696 253.416 215.536C254.696 211.376 256.616 207.664 259.176 204.4C261.736 201.072 264.936 198.48 268.776 196.624C272.68 194.704 277.224 193.744 282.408 193.744C285.032 193.744 287.656 194 290.28 194.512C292.968 194.96 295.368 195.536 297.48 196.24C297.352 198.224 297.064 200.656 296.616 203.536C296.168 206.416 295.56 209.168 294.792 211.792H287.304L286.824 204.688C286.76 203.92 286.632 203.184 286.44 202.48C286.312 201.776 285.864 201.104 285.096 200.464C284.008 199.568 282.504 199.12 280.584 199.12C278.28 199.12 276.232 199.92 274.44 201.52C272.648 203.12 271.112 205.328 269.832 208.144C268.552 210.896 267.56 214.032 266.856 217.552C266.216 221.008 265.896 224.656 265.896 228.496C265.896 233.616 266.696 237.808 268.296 241.072C269.896 244.336 272.456 245.968 275.976 245.968C276.872 245.968 277.672 245.872 278.376 245.68C279.144 245.424 279.784 245.104 280.296 244.72C281 244.208 281.512 243.632 281.832 242.992C282.152 242.352 282.44 241.712 282.696 241.072L285.576 232.624L293.064 232.912C293.192 234.96 293.128 237.456 292.872 240.4C292.616 243.28 292.136 245.904 291.432 248.272C288.616 249.232 285.64 249.968 282.504 250.48C279.432 250.992 276.552 251.248 273.864 251.248ZM299.726 250L300.302 245.008L304.814 244.144C305.518 244.016 306.062 243.792 306.446 243.472C306.83 243.152 307.054 242.608 307.118 241.84L311.918 203.152C312.046 202.32 311.918 201.776 311.534 201.52C311.214 201.2 310.67 200.976 309.902 200.848L305.678 199.984L306.254 194.992H332.366L331.79 199.984L327.278 200.848C326.638 200.976 326.126 201.2 325.742 201.52C325.358 201.84 325.102 202.384 324.974 203.152L320.174 241.84C320.11 242.672 320.238 243.248 320.558 243.568C320.878 243.824 321.422 244.016 322.19 244.144L326.414 245.008L325.838 250H299.726ZM354.107 241.36C354.043 242 354.075 242.608 354.203 243.184C354.331 243.696 354.971 244.016 356.123 244.144L363.035 245.008L362.459 250H333.563L334.139 245.008L338.651 244.144C339.355 244.016 339.899 243.792 340.283 243.472C340.667 243.152 340.891 242.608 340.955 241.84L345.755 203.152C345.883 202.32 345.755 201.776 345.371 201.52C345.051 201.2 344.507 200.976 343.739 200.848L339.515 199.984L340.091 194.992H352.571C354.235 194.992 356.219 194.928 358.523 194.8C360.827 194.672 362.843 194.608 364.571 194.608C368.091 194.608 371.163 195.088 373.787 196.048C376.475 196.944 378.587 198.48 380.123 200.656C381.659 202.832 382.427 205.872 382.427 209.776C382.427 214 381.499 217.712 379.643 220.912C377.787 224.048 375.131 226.512 371.675 228.304C368.283 230.032 364.283 230.896 359.675 230.896C358.651 230.896 357.627 230.864 356.603 230.8C355.643 230.672 354.715 230.576 353.819 230.512L354.299 225.136C355.067 225.2 355.835 225.296 356.603 225.424C357.371 225.552 358.107 225.616 358.811 225.616C361.371 225.616 363.387 224.784 364.859 223.12C366.331 221.392 367.387 219.28 368.027 216.784C368.731 214.288 369.083 211.824 369.083 209.392C369.083 202.992 366.843 199.792 362.363 199.792C361.915 199.792 361.403 199.824 360.827 199.888C360.315 199.888 359.803 199.92 359.291 199.984L354.107 241.36ZM421.566 209.872L420.894 203.824C420.83 202.992 420.67 202.384 420.414 202C420.222 201.552 419.742 201.2 418.974 200.944C418.206 200.624 417.31 200.464 416.286 200.464C415.326 200.4 414.398 200.368 413.502 200.368H408.414L406.014 218.992L419.742 218.32C419.87 219.536 419.838 220.816 419.646 222.16C419.518 223.44 419.23 224.624 418.782 225.712L405.246 225.232L402.846 244.336H408.126C409.534 244.336 410.846 244.272 412.062 244.144C413.278 244.016 414.302 243.824 415.134 243.568C415.838 243.312 416.382 242.96 416.766 242.512C417.15 242 417.502 241.328 417.822 240.496L421.086 232.912L427.23 233.488C427.038 236.112 426.718 238.832 426.27 241.648C425.822 244.4 425.214 247.184 424.446 250H382.782L383.358 245.008L387.87 244.144C388.574 244.016 389.118 243.792 389.502 243.472C389.886 243.152 390.11 242.608 390.174 241.84L394.974 203.152C395.102 202.32 394.974 201.776 394.59 201.52C394.27 201.2 393.726 200.976 392.958 200.848L388.734 199.984L389.31 194.992H429.822C429.694 197.296 429.438 199.728 429.054 202.288C428.734 204.784 428.286 207.312 427.71 209.872H421.566ZM455.14 251.56C451.22 251.56 447.38 251.16 443.62 250.36C439.86 249.56 436.54 248.4 433.66 246.88C433.82 243.04 434.22 239.32 434.86 235.72C435.58 232.04 436.34 228.88 437.14 226.24H446.26L446.74 235.72C446.82 237.24 446.94 238.48 447.1 239.44C447.34 240.4 447.98 241.32 449.02 242.2C450.06 243.08 451.3 243.76 452.74 244.24C454.18 244.64 455.54 244.84 456.82 244.84C459.86 244.84 462.38 243.92 464.38 242.08C466.46 240.24 467.5 237.76 467.5 234.64C467.5 232.08 466.82 229.96 465.46 228.28C464.18 226.52 462.5 225 460.42 223.72C458.42 222.36 456.26 221.04 453.94 219.76C451.7 218.4 449.54 216.96 447.46 215.44C445.38 213.84 443.7 211.92 442.42 209.68C441.14 207.36 440.5 204.52 440.5 201.16C440.5 197 441.54 193.32 443.62 190.12C445.78 186.92 448.86 184.4 452.86 182.56C456.94 180.64 461.78 179.68 467.38 179.68C470.58 179.68 473.86 180 477.22 180.64C480.58 181.2 483.62 182.04 486.34 183.16C486.26 185.8 485.94 188.84 485.38 192.28C484.9 195.64 484.26 198.72 483.46 201.52H474.7L473.98 193.84C473.82 192.16 473.62 190.88 473.38 190C473.22 189.04 472.7 188.28 471.82 187.72C471.18 187.24 470.3 186.88 469.18 186.64C468.06 186.32 466.9 186.16 465.7 186.16C462.9 186.16 460.54 187.04 458.62 188.8C456.78 190.48 455.86 192.6 455.86 195.16C455.86 197.4 456.5 199.32 457.78 200.92C459.14 202.52 460.82 203.96 462.82 205.24C464.9 206.44 467.1 207.72 469.42 209.08C471.82 210.36 474.02 211.84 476.02 213.52C478.1 215.2 479.78 217.28 481.06 219.76C482.42 222.16 483.1 225.12 483.1 228.64C483.1 233.36 481.9 237.44 479.5 240.88C477.1 244.32 473.78 246.96 469.54 248.8C465.38 250.64 460.58 251.56 455.14 251.56Z" fill="#393C41"/>
</svg>
