<?xml version="1.0" encoding="utf-8"?>
<!-- Generator: Adobe Illustrator 27.5.0, SVG Export Plug-In . SVG Version: 6.00 Build 0)  -->
<svg version="1.1" xmlns="http://www.w3.org/2000/svg" xmlns:xlink="http://www.w3.org/1999/xlink" x="0px" y="0px"
	 viewBox="0 0 841.89 566.929" style="enable-background:new 0 0 841.89 566.929;" xml:space="preserve">
<g id="BG">
	<rect y="0" style="fill:#FFFFFF;" width="841.89" height="566.929"/>
</g>
<g id="graphics">
	<g>
		<path style="fill:#383C41;" d="M312.63,476.166l-16.382-43.171h15.273l8.93,28.329l8.868-28.329h14.596l-16.504,43.171H312.63z"/>
		<path style="fill:#383C41;" d="M350.991,476.166v-43.171h14.288v43.171H350.991z"/>
		<path style="fill:#383C41;" d="M394.22,461.324l-4.188,4.681v10.161h-14.288v-43.171h14.288v14.965l12.871-14.965h16.443
			l-15.396,17.367l16.32,25.804h-17.059L394.22,461.324z"/>
		<path style="fill:#383C41;" d="M427.654,476.166v-43.171h14.289v43.171H427.654z"/>
		<path style="fill:#383C41;" d="M482.4,476.166l-16.998-22.047v22.047h-12.994v-43.171h11.947l17.059,22.171v-22.171h12.934v43.171
			H482.4z"/>
		<path style="fill:#383C41;" d="M544.965,453.441v17.798c-4.805,3.202-12.748,5.543-18.908,5.543c-13.547,0-23.4-9.361-23.4-22.171
			c0-12.748,10.223-22.047,24.324-22.047c6.713,0,14.043,2.586,18.66,6.65l-8.066,9.792c-2.894-2.771-7.082-4.557-10.654-4.557
			c-5.543,0-9.607,4.311-9.607,10.161c0,5.974,4.127,10.285,9.731,10.285c1.478,0,3.572-0.555,5.666-1.417v-10.038H544.965z"/>
	</g>
	<path style="fill:#383C41;" d="M514.63,399.526l-26.982-26.79v-62.661c0-2.218-1.798-4.016-4.014-4.016h-23.441
		c-1.265,0-2.465,0.588-3.237,1.588l-26.049,33.687h-15.202l33.568-43.888c1.535-2.006,3.932-3.19,6.454-3.19h27.906
		c2.216,0,4.014-1.798,4.014-4.014v-51.494c0-3.404-0.293-6.741-0.833-9.996l24.08-21.814c1.893-1.712,2.977-4.16,2.977-6.71
		v-40.743c0-2.562-1.049-5.025-2.894-6.802l-40.579-39.047c-2.172-2.089-5.787-0.549-5.787,2.463v61.39h-97.868V116.1
		c0-3.013-3.616-4.552-5.788-2.463l-40.582,39.047c-1.842,1.774-2.891,4.238-2.891,6.797v40.748c0,2.551,1.084,4.999,2.974,6.712
		l27.742,25.439c0,8.93,0,61.307,0,61.307c0,2.57,1.007,5.053,2.797,6.896l41.65,42.921l-6.463,8.449
		c-1.997,2.609-0.135,6.378,3.151,6.378h17.155l31.018,29.857h-26.984l-53.089-54.203c-1.029-1.048-2.811-0.32-2.811,1.145v16.262
		c0,2.567,1.013,5.048,2.811,6.883l45.945,46.91h51.786h23.983h33.148C515.253,405.186,516.727,401.608,514.63,399.526z
		 M465.384,323.057h5.268v32.804l-16.967-16.847L465.384,323.057z M447.33,277.259c-2.523,0-4.919,1.185-6.454,3.19L422,305.126
		l-22.838-22.693v-18.866h71.489v13.692H447.33z M365.198,238.748c0-0.499,0.028-0.992,0.044-1.487h42.488
		c2.219,0,4.017-1.798,4.017-4.014v-12.27h6.994c0.107-0.018,10.507-0.84,17.37,5.859c4.354,4.249,6.673,10.875,6.936,19.731
		h-77.849V238.748z M470.651,238.748v7.82h-10.612c-0.321-13.774-4.429-24.543-12.25-32.086
		c-11.929-11.504-30.008-10.418-30.741-10.418c-1.665,0-3.619,0-5.301,0v-9.297h14.926
		C450.924,194.768,470.651,214.497,470.651,238.748z M477.595,194.487c2.217,0,4.015-1.797,4.015-4.016v-42.46l15.266,14.688v34.006
		l-15.886,14.389c-3.184-6.23-7.405-11.841-12.44-16.607H477.595z M334.482,162.701l15.266-14.69v42.46
		c0,2.219,1.798,4.016,4.014,4.016h40.988v25.777h-34.26l-26.008-23.558V162.701z M365.198,290.811v-27.244h16.967v21.924
		c0,2.563,1.029,5.037,2.847,6.843l26.575,26.408l-8.499,11.113L365.198,290.811z M462.02,388.189l-31.021-29.857h4.51
		c2.518,0,4.899-1.208,6.388-3.238l1.627-2.218l27.128,26.938v0.349h0.352l8.083,8.027H462.02z"/>
</g>
</svg>
